<?xml version="1.0" encoding="utf-8"?>
<!-- Generator: Adobe Illustrator 25.4.1, SVG Export Plug-In . SVG Version: 6.00 Build 0)  -->
<svg version="1.1" id="Layer_1" xmlns="http://www.w3.org/2000/svg" xmlns:xlink="http://www.w3.org/1999/xlink" x="0px" y="0px"
	 viewBox="0 0 2000 2000" style="enable-background:new 0 0 2000 2000;" xml:space="preserve">
<style type="text/css">
	.st0{opacity:0.8;}
	.st1{opacity:0.5;}
	.st2{fill:#00BEC5;}
</style>
<g class="st0">
	<g class="st1">
		<image style="overflow:visible;" width="2380" height="2380" xlink:href="18C5D2D0.png"  transform="matrix(1 0 0 1 -190 -190)">
		</image>
		<g>
			<path d="M1000,1949.5c-128.2,0-252.5-25.1-369.6-74.6c-113.1-47.8-214.6-116.3-301.8-203.5s-155.7-188.7-203.5-301.8
				c-49.5-117.1-74.6-241.4-74.6-369.6s25.1-252.5,74.6-369.6c47.8-113.1,116.3-214.6,203.5-301.8s188.7-155.7,301.8-203.5
				C747.5,75.6,871.8,50.5,1000,50.5s252.5,25.1,369.6,74.6c113.1,47.8,214.6,116.3,301.8,203.5s155.7,188.7,203.5,301.8
				c49.5,117.1,74.6,241.4,74.6,369.6s-25.1,252.5-74.6,369.6c-47.8,113.1-116.3,214.6-203.5,301.8s-188.7,155.7-301.8,203.5
				C1252.5,1924.4,1128.2,1949.5,1000,1949.5z"/>
		</g>
	</g>
	<path d="M1000,51c64.4,0,128.7,6.5,191.3,19.3c60.9,12.5,120.9,31.1,178.1,55.3c56.2,23.8,110.5,53.2,161.2,87.5
		C1580.8,247,1628.1,286,1671,329s81.9,90.2,115.9,140.4c34.3,50.7,63.7,105,87.5,161.2c24.2,57.3,42.8,117.2,55.3,178.1
		c12.8,62.5,19.3,126.9,19.3,191.3s-6.5,128.7-19.3,191.3c-12.5,60.9-31.1,120.9-55.3,178.1c-23.8,56.2-53.2,110.5-87.5,161.2
		c-33.9,50.3-72.9,97.5-115.9,140.4c-42.9,42.9-90.2,81.9-140.4,115.9c-50.7,34.3-105,63.7-161.2,87.5
		c-57.3,24.2-117.2,42.8-178.1,55.3c-62.5,12.8-126.9,19.3-191.3,19.3s-128.7-6.5-191.3-19.3c-60.9-12.5-120.9-31.1-178.1-55.3
		c-56.2-23.8-110.5-53.2-161.2-87.5c-50.3-33.9-97.5-72.9-140.5-115.9c-42.9-42.9-81.9-90.2-115.9-140.4
		c-34.3-50.7-63.7-105-87.5-161.2c-24.2-57.3-42.8-117.2-55.3-178.1C57.5,1128.7,51,1064.4,51,1000s6.5-128.7,19.3-191.3
		c12.5-60.9,31.1-120.9,55.3-178.1c23.8-56.2,53.2-110.5,87.5-161.2C247,419.1,286,371.9,329,328.9s90.2-81.9,140.4-115.9
		c50.7-34.3,105-63.7,161.2-87.5c57.3-24.2,117.2-42.8,178.1-55.3C871.3,57.5,935.6,51,1000,51 M1000,50C475.3,50,50,475.3,50,1000
		s425.3,950,950,950s950-425.3,950-950S1524.7,50,1000,50L1000,50z"/>
</g>
<g class="st1">
	<path class="st2" d="M1000.2,80.2c62.4,0,124.8,6.3,185.4,18.7c59.1,12.1,117.1,30.1,172.7,53.6c54.5,23.1,107.1,51.6,156.3,84.8
		c48.7,32.9,94.5,70.7,136.2,112.4c41.6,41.6,79.4,87.5,112.4,136.2c33.2,49.2,61.8,101.8,84.8,156.3
		c23.5,55.5,41.5,113.6,53.6,172.7c12.4,60.6,18.7,123,18.7,185.4s-6.3,124.8-18.7,185.4c-12.1,59.1-30.1,117.1-53.6,172.7
		c-23.1,54.5-51.6,107.1-84.8,156.3c-32.9,48.7-70.7,94.5-112.4,136.2c-41.6,41.6-87.5,79.4-136.2,112.4
		c-49.2,33.2-101.8,61.8-156.3,84.8c-55.5,23.5-113.6,41.5-172.7,53.6c-60.6,12.4-123,18.7-185.4,18.7s-124.8-6.3-185.4-18.7
		c-59.1-12.1-117.1-30.1-172.7-53.6c-54.5-23.1-107.1-51.6-156.3-84.8c-48.7-32.9-94.5-70.7-136.2-112.4s-79.4-87.5-112.4-136.2
		c-33.2-49.2-61.8-101.8-84.8-156.3c-23.5-55.5-41.5-113.6-53.6-172.7c-12.4-60.6-18.7-123-18.7-185.4s6.3-124.8,18.7-185.4
		c12.1-59.1,30.1-117.1,53.6-172.7c23.1-54.5,51.6-107.1,84.8-156.3c32.9-48.7,70.7-94.5,112.4-136.2s87.5-79.4,136.2-112.4
		c49.2-33.2,101.8-61.8,156.3-84.8C697.6,129,755.7,111,814.7,98.9C875.3,86.5,937.7,80.2,1000.2,80.2 M1000.2,50.2
		c-524.7,0-950,425.3-950,950s425.3,950,950,950s950-425.3,950-950S1524.8,50.2,1000.2,50.2L1000.2,50.2z"/>
</g>
</svg>
